<?xml version="1.0" encoding="utf-8"?>
<!-- Generator: Adobe Illustrator 19.0.0, SVG Export Plug-In . SVG Version: 6.00 Build 0)  -->
<svg version="1.1" id="Layer_1" xmlns="http://www.w3.org/2000/svg" xmlns:xlink="http://www.w3.org/1999/xlink" x="0px" y="0px"
	 viewBox="0 0 500 500" style="enable-background:new 0 0 500 500;" xml:space="preserve">
<style type="text/css">
	.st0{fill:#EE2A28;}
	.st1{fill:#00AAE5;}
	.st2{fill:#636466;}
</style>
<g id="XMLID_1_">
	<path id="XMLID_9_" class="st0" d="M176.3,128.5L176.3,128.5l0,115.8c0,7.3-5.9,13.3-13.3,13.3c-7.3,0-13.3-5.9-13.3-13.3V128.5h0
		c6.3,0,7.7,7.3,7.7,14.4h0c0-7.3,6-14.4,13.3-14.4H176.3L176.3,128.5z M196.8,128.5L196.8,128.5c7.3,0,13.3,6,13.3,13.3v102.6
		c0,7.3-6,13.3-13.3,13.3c-7.3,0-13.3-5.9-13.3-13.3V128.5H196.8L196.8,128.5z M104.8,257.6L104.8,257.6V141.7
		c0-7.3,6-13.3,13.3-13.3c7.3,0,13.3,5.9,13.3,13.3v115.8h0c-6.3,0-7.7-7.3-7.7-14.4h0c0,7.3-5.9,14.4-13.3,14.4H104.8 M84.4,257.6
		L84.4,257.6c-7.3,0-13.3-5.9-13.3-13.3V141.7c0-7.3,5.9-13.3,13.3-13.3c7.4,0,13.3,5.9,13.3,13.3v115.8H84.4z M228.3,109.1
		c0-7.4,6-13.3,13.3-13.3c7.4,0,13.3,5.9,13.3,13.3c0,7.3-5.9,13.3-13.3,13.3C234.2,122.4,228.3,116.5,228.3,109.1 M241.6,135.8
		c-5.1,0-9.5-2.9-11.8-7.4h-1.5v115.8c0,7.3,5.9,13.3,13.3,13.3c7.3,0,13.3-6,13.3-13.3V128.5h-1.5
		C251.1,133,246.7,135.8,241.6,135.8"/>
	<path id="XMLID_14_" class="st1" d="M276.1,244.3c0-7.4,6-13.3,13.3-13.3c7.3,0,13.3,6,13.3,13.3c0,7.3-6,13.3-13.3,13.3
		C282.1,257.6,276.1,251.6,276.1,244.3 M402.5,257.6L402.5,257.6l0-115.8c0-7.3,5.9-13.3,13.3-13.3c7.3,0,13.3,6,13.3,13.3v115.8h0
		c-6.3,0-7.7-7.3-7.7-14.4h0c0,7.3-6,14.4-13.3,14.4H402.5L402.5,257.6z M382,257.6L382,257.6c-7.3,0-13.3-5.9-13.3-13.3V141.7
		c0-7.3,5.9-13.3,13.3-13.3c7.3,0,13.3,6,13.3,13.3v115.8H382z M337.2,103c-5.1,0-9.6-2.9-11.8-7.4h-1.5v148.7
		c0,7.3,5.9,13.3,13.3,13.3c7.3,0,13.3-6,13.3-13.3V95.6h-1.5C346.7,100.1,342.3,103,337.2,103"/>
	<path id="XMLID_43_" class="st2" d="M420.9,313.9v30.2h-4.7v-30.2h-7.1v-4.5h19.2v4.5H420.9L420.9,313.9z M395.7,344.1l-4.2-11.2
		h-11.1l-4.2,11.2h-5l13.3-34.7h3l13.4,34.7H395.7L395.7,344.1z M379.1,300.5h4.3v5.3h-4.3V300.5z M386.2,318.8
		c-0.1-0.4-0.3-1-0.3-1s-0.1,0.6-0.2,0.9l-3.6,9.7h7.7L386.2,318.8L386.2,318.8z M388.4,300.6h4.3v5.3h-4.3V300.6z M355.6,313.9
		v30.2h-4.7v-30.2h-7.1v-4.5h19.2v4.5H355.6z M324.6,309.5h4.7v34.7h-4.7V309.5z M299.7,344.7c-3.5,0-7-0.9-10.2-3.5l2.7-3.7
		c1.8,1.7,4.8,2.6,7.2,2.6c3.5,0,5.9-1.6,5.9-4.8c0-2.9-2.7-4.6-5.8-6.1c-4.9-2.5-10-4.7-10-11.3c0-5.1,3.8-8.9,10-8.9
		c3.5,0,6.7,1,9.3,2.9l-2.6,3.9c-2.1-1.6-3.9-2.2-6.8-2.2c-2.7,0-5,1.4-5,4c0,3.8,3.3,5,7.6,7.2c3.9,1.9,8.1,4.5,8.1,10.3
		C310.3,341.2,305.5,344.7,299.7,344.7 M272.5,344.1l-14-16.2v16.2h-4.8v-34.7h11.2c6.4,0,10.7,4.6,10.7,10.2c0,5.6-4.7,9.9-9.9,9.9
		l12.8,14.5H272.5L272.5,344.1z M264.1,313.9h-5.6v11.9h5.5c4.3,0,6.7-2.7,6.7-6.4C270.7,317.1,268.6,313.9,264.1,313.9
		 M218.3,344.1v-34.7h19.4v4.5h-14.6V325h14.3v4.5h-14.3v10.2h15.5v4.5H218.3z M192.3,344.1h-2.9l-12.2-34.7h4.6l8.8,25
		c0.1,0.4,0.3,1.2,0.3,1.2s0.1-0.8,0.3-1.2l8.8-25h4.5L192.3,344.1L192.3,344.1z M158.5,309.5h4.7v34.7h-4.7V309.5z M138.5,344.1
		L120.3,319c-0.2-0.3-0.6-1-0.6-1s0.1,0.8,0.1,1.1v24.9H115v-34.7h4l17.9,24.6c0.3,0.4,0.6,1,0.6,1s-0.1-0.7-0.1-1.1v-24.5h4.7v34.7
		H138.5L138.5,344.1z M85.4,344.7c-8,0-13.5-5.1-13.5-13.7v-21.6h4.8V331c0,6.7,4.2,9.2,8.7,9.2c4.5,0,8.9-2.6,8.9-9.2v-21.6H99V331
		C99,339.3,93.1,344.7,85.4,344.7 M413,404.4c-8.9,0-17.8-7.3-17.8-18.1c0-10.9,8.2-18.2,17.9-18.2c5.7,0,9.6,1.8,13,4.8l-2.9,3.6
		c-3-2.5-6-3.6-10.1-3.6c-7.1,0-12.8,5.3-12.8,13.5c0,7.1,5.8,13.4,12.9,13.4c5.1,0,9.1-2.8,10.4-7.1h-10.6v-4.5h16.2
		C429.1,397.6,421.5,404.4,413,404.4 M378.3,403.8l-14.2-16.4v16.4h-4.8v-35.2h11.4c6.5,0,10.9,4.7,10.9,10.4
		c0,5.6-4.8,10.1-10,10.1l13,14.7H378.3L378.3,403.8z M369.8,373.2h-5.7v12.1h5.6c4.3,0,6.8-2.7,6.8-6.5
		C376.5,376.4,374.4,373.2,369.8,373.2 M330.4,404.4c-8.1,0-13.7-5.2-13.7-13.9v-21.9h4.9v21.9c0,6.8,4.2,9.3,8.9,9.3
		c4.6,0,9-2.6,9-9.3v-21.9h4.8v21.9C344.2,398.9,338.3,404.4,330.4,404.4 M290.1,403.8h-10.5v-35.2h9.3c6,0,10.2,3.7,10.2,9.1
		c0,4-1.8,6.7-4,8.1c2.7,0.8,5.9,4.1,5.9,8.4C301,398.7,297.9,403.8,290.1,403.8 M288.1,373.2h-3.6v11.1h3.2c5.3,0,6.5-3.2,6.5-6.1
		C294.1,375,292,373.2,288.1,373.2 M290.1,388.8h-5.7v10.5h5.2c4.3,0,6.4-2.1,6.4-5.4C296,390.8,293.7,388.8,290.1,388.8
		 M256.6,403.8v-25.9c0-0.6,0.1-1.4,0.1-1.4s-0.3,0.6-0.5,0.8l-11,14.9h-1.9l-11.1-14.5c-0.2-0.2-0.5-0.8-0.5-0.8s0.1,0.7,0.1,1.3
		v25.5h-4.8v-35.2h4.1l13.2,17.2l12.9-17.2h4.3v35.2H256.6L256.6,403.8z M188.2,403.8v-35.2h19.6v4.5h-14.8v11.2h14.5v4.5h-14.5
		v10.4h15.7v4.5H188.2L188.2,403.8z M167.5,403.8l-7.8-12c-0.6-0.9-1.5-2.5-1.5-2.5s-0.9,1.5-1.6,2.5l-7.8,11.9h-5.6l12.2-18.5
		l-10.8-16.6h5.9l6.7,10.4c0.5,0.8,1.1,1.8,1.1,1.8s0.5-1,1.2-1.9l6.8-10.3h5.5L161.1,385l12.2,18.8H167.5L167.5,403.8z
		 M117.3,404.4c-8.1,0-13.7-5.2-13.7-13.9v-21.9h4.9v21.9c0,6.8,4.2,9.3,8.9,9.3c4.6,0,9-2.6,9-9.3v-21.9h4.8v21.9
		C131,398.9,125.1,404.4,117.3,404.4 M71.8,403.8v-35.2h4.8v30.6h13.3v4.5H71.8z M67.5,285.7h365v-5h-365V285.7L67.5,285.7z"/>
</g>
</svg>
